<svg xmlns="http://www.w3.org/2000/svg" width="12" height="7.06" viewBox="0 0 12 7.06">
  <defs>
    <style>
      .cls-1 {
        fill: #fff;
        fill-rule: evenodd;
      }
    </style>
  </defs>
  <path id="_" data-name="" class="cls-1" d="M1477,5615.77h9.78l-2.12-2.16a0.4,0.4,0,0,1,0-.69,0.387,0.387,0,0,1,.68,0l3,3.01a0.283,0.283,0,0,1,.13.15,0.617,0.617,0,0,1,0,.38,0.283,0.283,0,0,1-.13.15l-3,3a0.481,0.481,0,1,1-.68-0.68l2.12-2.16H1477a0.5,0.5,0,0,1,0-1h0Z" transform="translate(-1476.5 -5612.75)"/>
</svg>
