<svg xmlns="http://www.w3.org/2000/svg" viewBox="0 0 103.19 136.5">
  <defs>
    <style>
      .cls-1 {
        fill: #ed1459;
      }
    </style>
  </defs>
  <title>Asset 1</title>
  <g id="Layer_2" data-name="Layer 2">
    <g id="Layer_1-2" data-name="Layer 1">
      <g>
        <path class="cls-1" d="M102.77,39.27,71.89,8.39a28.74,28.74,0,0,0-40.59,0L.42,39.27h0l-.11.13-.07.08c0,.06-.06.12-.09.17l0,.08a1.39,1.39,0,0,0-.06.19A.24.24,0,0,0,0,40a1.07,1.07,0,0,0,0,.25v0H0a1.24,1.24,0,0,0,0,.27.29.29,0,0,0,0,.1.84.84,0,0,0,.05.17L.17,41s0,.08.07.12a1.24,1.24,0,0,0,.18.22L31.3,72.18a28.74,28.74,0,0,0,40.59,0L102.77,41.3h0A1.44,1.44,0,0,0,102.77,39.27ZM51.6,49.86,42,40.29l9.57-9.57,9.56,9.57ZM33.33,10.42a25.86,25.86,0,0,1,35.49-1L40,38.28l-1-.89a28.47,28.47,0,0,0-18.22-6.52,28.87,28.87,0,0,0-9.42,1.57ZM69.87,70.15a25.87,25.87,0,0,1-35.5,1L63.22,42.29h0c.45.41.92.8,1.39,1.17l.29.23c.47.36.94.71,1.43,1h0a28.77,28.77,0,0,0,25.55,3.38Z"/>
        <g>
          <path class="cls-1" d="M13.51,116.54a4.24,4.24,0,0,1-.48,2.27,2.28,2.28,0,0,1-1.2,1,2.08,2.08,0,0,1,1.2.93,4.32,4.32,0,0,1,.48,2.29v8.3a26.6,26.6,0,0,0,.17,3.7c.11.73.2,1.23.26,1.48H11.73a6.48,6.48,0,0,1-.33-1.77c-.07-.77-.1-1.91-.1-3.41v-8.11c0-1.73-.5-2.6-1.49-2.6H7.41V136.5H5.2V103H9.72A3.72,3.72,0,0,1,12.38,104a4.37,4.37,0,0,1,1.13,3.29Zm-3.7,2.4c1,0,1.49-.85,1.49-2.55v-8.74a3.36,3.36,0,0,0-.55-2.18,1.62,1.62,0,0,0-1.23-.65H7.41v14.12Z"/>
          <path class="cls-1" d="M25.7,104.82v14.07h3.46v1.68H25.7v14.06h4.66v1.87H23.49V103h6.67v1.87Z"/>
          <path class="cls-1" d="M39.62,136.5V103h4.51a4.24,4.24,0,0,1,1.35.22,3.26,3.26,0,0,1,1.22.72,3.57,3.57,0,0,1,.89,1.32,5.22,5.22,0,0,1,.33,2v25.11a5.27,5.27,0,0,1-.33,2,3.74,3.74,0,0,1-.89,1.32,3.54,3.54,0,0,1-1.22.72,4.52,4.52,0,0,1-1.35.21Zm2.21-31.68v29.81h2.11a1.63,1.63,0,0,0,1.22-.58,3,3,0,0,0,.56-2.11V107.51a3.05,3.05,0,0,0-.56-2.11,1.66,1.66,0,0,0-1.22-.58Z"/>
          <path class="cls-1" d="M59.83,104.82v14.07h3.45v1.68H59.83v14.06h4.65v1.87H57.62V103h6.67v1.87Z"/>
          <path class="cls-1" d="M78.69,123.54l0,13H76.43v-13L72.83,103h2.26l2.4,15.46h.1L80,103h2.25Z"/>
          <path class="cls-1" d="M93.33,104.82v14.07h3.46v1.68H93.33v14.06H98v1.87H91.12V103h6.67v1.87Z"/>
        </g>
      </g>
    </g>
  </g>
</svg>
