<svg xmlns="http://www.w3.org/2000/svg" width="10.5" height="6.219" viewBox="0 0 10.5 6.219">
  <defs>
    <style>
      .cls-1 {
        fill: #ed1559;
        fill-rule: evenodd;
      }
    </style>
  </defs>
  <path id="_" data-name="" class="cls-1" d="M1516.7,935.421h8.56l-1.86-1.886a0.425,0.425,0,1,1,.6-0.6l2.63,2.625a0.291,0.291,0,0,1,.1.137,0.352,0.352,0,0,1,.03.164,0.342,0.342,0,0,1-.03.163,0.29,0.29,0,0,1-.1.138l-2.63,2.624a0.425,0.425,0,1,1-.6-0.6l1.86-1.887h-8.56a0.438,0.438,0,1,1,0-.875h0Z" transform="translate(-1516.25 -932.75)"/>
</svg>
