<svg xmlns="http://www.w3.org/2000/svg" viewBox="0 0 917.45 276" style="" class="">
  <defs>
    <style>
      .cls-1 {
        fill: #ed1459;
      }

      .cls-2 {
        fill: none;
        stroke: #5a5a5a;
        stroke-miterlimit: 10;
      }
    </style>
  </defs>
  <title>home</title>
  <g id="slova">
    <g>
      <path class="cls-1 EvUHRLVm_0" d="M519.43,424.68a32.11,32.11,0,0,1,10.41,1.6,23.3,23.3,0,0,1,8.09,4.61,19.93,19.93,0,0,1,5.17,7.21,24.06,24.06,0,0,1,1.79,9.55v70.9q0,10.69-6.69,16.83t-18.77,6.14h-7.69v62.23a8.34,8.34,0,0,1-1.93,5.68,7.27,7.27,0,0,1-5.77,2.2h-7.42a2.44,2.44,0,0,1-2-.8,3.05,3.05,0,0,1-.66-2V427.48a3,3,0,0,1,.66-2,2.41,2.41,0,0,1,2-.8Zm-7.69,14.95v86.94h7.69c2.65,0,4.59-.76,5.84-2.27a8.84,8.84,0,0,0,1.85-5.75v-70.9a9,9,0,0,0-1.79-5.75q-1.79-2.26-5.9-2.27Z" transform="translate(-493.97 -380)"></path>
      <path class="cls-1 EvUHRLVm_1" d="M611.2,445.51q0-10.68,6.7-16.83t18.76-6.14a32.07,32.07,0,0,1,10.41,1.6,23.36,23.36,0,0,1,8.09,4.61,20,20,0,0,1,5.18,7.21,24.24,24.24,0,0,1,1.79,9.55V590.8q0,10.68-6.7,16.82t-18.77,6.15a32,32,0,0,1-10.48-1.61,23.42,23.42,0,0,1-8-4.6,20.1,20.1,0,0,1-5.17-7.21,24.27,24.27,0,0,1-1.79-9.55Zm33.16,0a8.7,8.7,0,0,0-1.86-5.81c-1.24-1.47-3.18-2.2-5.84-2.2s-4.49.73-5.77,2.2a8.52,8.52,0,0,0-1.92,5.81V590.8a8.71,8.71,0,0,0,1.86,5.81c1.23,1.47,3.18,2.2,5.83,2.2s4.49-.73,5.77-2.2a8.54,8.54,0,0,0,1.93-5.81Z" transform="translate(-493.97 -380)"></path>
      <path class="cls-1 EvUHRLVm_2" d="M754.16,424.68a30.19,30.19,0,0,1,10.34,1.67,24.23,24.23,0,0,1,8,4.6,19.66,19.66,0,0,1,5.11,7.21,24.21,24.21,0,0,1,1.79,9.49v63.29a18,18,0,0,1-2.32,9.62,17.25,17.25,0,0,1-6.43,6,16,16,0,0,1,8.75,15.35v66.91a3,3,0,0,1-.67,2,2.43,2.43,0,0,1-2,.8h-7.43a7.27,7.27,0,0,1-5.77-2.2,8.33,8.33,0,0,1-1.92-5.68V541.92a9,9,0,0,0-1.79-5.81c-1.2-1.46-3.17-2.2-5.9-2.2h-7.69v69.84a8.34,8.34,0,0,1-1.93,5.68,7.27,7.27,0,0,1-5.77,2.2h-7.42a2.44,2.44,0,0,1-2-.8,3,3,0,0,1-.67-2V427.48a3,3,0,0,1,.67-2,2.41,2.41,0,0,1,2-.8Zm-7.95,14.95V519h7.69c2.65,0,4.59-.75,5.83-2.27a8.74,8.74,0,0,0,1.86-5.74V447.65a8.61,8.61,0,0,0-1.93-5.75,7.13,7.13,0,0,0-5.76-2.27Z" transform="translate(-493.97 -380)"></path>
      <path class="cls-1 EvUHRLVm_3" d="M886.91,424.68a3,3,0,0,1,2,.66,2.49,2.49,0,0,1,.8,2v4.54a8.26,8.26,0,0,1-1.86,5.61,6.19,6.19,0,0,1-4.91,2.13h-8.22V606.82a4.69,4.69,0,0,1-1.39,3.41,4.62,4.62,0,0,1-3.39,1.4h-8.22a4.76,4.76,0,0,1-4.77-4.81V439.63h-8.22a6.19,6.19,0,0,1-4.91-2.13,8.26,8.26,0,0,1-1.86-5.61v-4.54a2.49,2.49,0,0,1,.8-2,3,3,0,0,1,2-.66Z" transform="translate(-493.97 -380)"></path>
      <path class="cls-1 EvUHRLVm_4" d="M990.35,424.68a3,3,0,0,1,2,.66,2.49,2.49,0,0,1,.8,2v4.54a8.26,8.26,0,0,1-1.86,5.61,6.19,6.19,0,0,1-4.91,2.13H970.06v72H987.7a3,3,0,0,1,2,.67,2.46,2.46,0,0,1,.8,2v4.54a8.22,8.22,0,0,1-1.86,5.61,6.2,6.2,0,0,1-4.91,2.14H970.06v77.18a8.33,8.33,0,0,1-1.92,5.68,7.28,7.28,0,0,1-5.77,2.2h-7.43a2.45,2.45,0,0,1-2-.8,3.05,3.05,0,0,1-.66-2V427.48a3,3,0,0,1,.66-2,2.42,2.42,0,0,1,2-.8Z" transform="translate(-493.97 -380)"></path>
      <path class="cls-1 EvUHRLVm_5" d="M1055.74,445.51q0-10.68,6.69-16.83t18.77-6.14a32.11,32.11,0,0,1,10.41,1.6,23.36,23.36,0,0,1,8.09,4.61,20,20,0,0,1,5.17,7.21,24.06,24.06,0,0,1,1.79,9.55V590.8q0,10.68-6.7,16.82t-18.76,6.15a32,32,0,0,1-10.48-1.61,23.32,23.32,0,0,1-8-4.6,20,20,0,0,1-5.17-7.21,24.09,24.09,0,0,1-1.79-9.55Zm33.15,0a8.7,8.7,0,0,0-1.86-5.81q-1.86-2.2-5.83-2.2t-5.77,2.2a8.52,8.52,0,0,0-1.92,5.81V590.8a8.71,8.71,0,0,0,1.85,5.81q1.86,2.21,5.84,2.2a7.26,7.26,0,0,0,5.77-2.2,8.54,8.54,0,0,0,1.92-5.81Z" transform="translate(-493.97 -380)"></path>
      <path class="cls-1 EvUHRLVm_6" d="M1175.62,611.63a2.45,2.45,0,0,1-2-.8,3.05,3.05,0,0,1-.66-2V427.48a3,3,0,0,1,.66-2,2.42,2.42,0,0,1,2-.8h7.43a8.12,8.12,0,0,1,5.57,1.87,6.26,6.26,0,0,1,2.12,4.94V596.67h16.31a6.2,6.2,0,0,1,4.91,2.14,8.24,8.24,0,0,1,1.86,5.61V609a2.46,2.46,0,0,1-.8,2,3,3,0,0,1-2,.67Z" transform="translate(-493.97 -380)"></path>
      <path class="cls-1 EvUHRLVm_7" d="M1276.41,431.49a6.24,6.24,0,0,1,2.13-4.94,8.09,8.09,0,0,1,5.57-1.87h7.42a2.41,2.41,0,0,1,2,.8,3,3,0,0,1,.67,2V606.82a4.66,4.66,0,0,1-1.4,3.41,4.58,4.58,0,0,1-3.38,1.4h-8.22a4.58,4.58,0,0,1-3.38-1.4,4.66,4.66,0,0,1-1.4-3.41Z" transform="translate(-493.97 -380)"></path>
      <path class="cls-1 EvUHRLVm_8" d="M1360.49,445.51q0-10.68,6.7-16.83t18.77-6.14a32.11,32.11,0,0,1,10.41,1.6,23.55,23.55,0,0,1,8.09,4.61,20.13,20.13,0,0,1,5.17,7.21,24.24,24.24,0,0,1,1.79,9.55V590.8q0,10.68-6.7,16.82T1386,613.77a31.9,31.9,0,0,1-10.48-1.61,23.37,23.37,0,0,1-8-4.6,20.22,20.22,0,0,1-5.17-7.21,24.27,24.27,0,0,1-1.79-9.55Zm33.16,0a8.7,8.7,0,0,0-1.86-5.81q-1.86-2.2-5.83-2.2t-5.77,2.2a8.52,8.52,0,0,0-1.93,5.81V590.8a8.71,8.71,0,0,0,1.86,5.81c1.24,1.47,3.18,2.2,5.84,2.2s4.48-.73,5.76-2.2a8.54,8.54,0,0,0,1.93-5.81Z" transform="translate(-493.97 -380)"></path>
    </g>
  </g>
  <g id="line2">
    <path class="cls-2 EvUHRLVm_9" d="M83.53,0.5L83.53,275.5L833.53,275.5"></path>
  </g>
  <g id="line1">
    <path class="cls-2 EvUHRLVm_10" d="M83.53,0.5L833.53,0.5L833.53,275.5"></path>
  </g>
<style data-made-with="vivus-instant">.EvUHRLVm_0{stroke-dasharray:650 652;stroke-dashoffset:651;animation:EvUHRLVm_draw 2000ms linear 0ms forwards;}.EvUHRLVm_1{stroke-dasharray:787 789;stroke-dashoffset:788;animation:EvUHRLVm_draw 2000ms linear 100ms forwards;}.EvUHRLVm_2{stroke-dasharray:800 802;stroke-dashoffset:801;animation:EvUHRLVm_draw 2000ms linear 200ms forwards;}.EvUHRLVm_3{stroke-dasharray:458 460;stroke-dashoffset:459;animation:EvUHRLVm_draw 2000ms linear 300ms forwards;}.EvUHRLVm_4{stroke-dasharray:484 486;stroke-dashoffset:485;animation:EvUHRLVm_draw 2000ms linear 400ms forwards;}.EvUHRLVm_5{stroke-dasharray:787 789;stroke-dashoffset:788;animation:EvUHRLVm_draw 2000ms linear 500ms forwards;}.EvUHRLVm_6{stroke-dasharray:447 449;stroke-dashoffset:448;animation:EvUHRLVm_draw 2000ms linear 600ms forwards;}.EvUHRLVm_7{stroke-dasharray:402 404;stroke-dashoffset:403;animation:EvUHRLVm_draw 2000ms linear 700ms forwards;}.EvUHRLVm_8{stroke-dasharray:787 789;stroke-dashoffset:788;animation:EvUHRLVm_draw 2000ms linear 800ms forwards;}.EvUHRLVm_9{stroke-dasharray:1025 1027;stroke-dashoffset:1026;animation:EvUHRLVm_draw 2000ms linear 900ms forwards;}.EvUHRLVm_10{stroke-dasharray:1025 1027;stroke-dashoffset:1026;animation:EvUHRLVm_draw 2000ms linear 1000ms forwards;}@keyframes EvUHRLVm_draw{100%{stroke-dashoffset:0;}}@keyframes EvUHRLVm_fade{0%{stroke-opacity:1;}94.44444444444444%{stroke-opacity:1;}100%{stroke-opacity:0;}}</style></svg>
