<svg id="Layer_1" data-name="Layer 1" xmlns="http://www.w3.org/2000/svg" viewBox="0 0 72 72">
  <defs>
    <style>
      .cls-1 {
        fill: #ed1459;
      }
    </style>
  </defs>
  <title>loader2</title>
  <path class="cls-1" d="M50,16A34,34,0,1,1,16,50,34,34,0,0,1,50,16m0-2A36,36,0,1,0,86,50,36,36,0,0,0,50,14Z" transform="translate(-14 -14)"/>
  <path class="cls-1" d="M50,24A26,26,0,1,1,24,50,26,26,0,0,1,50,24m0-1A27,27,0,1,0,77,50,27,27,0,0,0,50,23Z" transform="translate(-14 -14)"/>
</svg>
